<svg id="svg" version="1.1" xmlns="http://www.w3.org/2000/svg" xmlns:xlink="http://www.w3.org/1999/xlink" width="400" height="400" viewBox="0, 0, 400,400"><g id="svgg"><path id="path0" d="M115.020 47.223 C 114.815 47.414,112.451 47.685,109.766 47.824 C 103.195 48.165,101.296 48.379,96.484 49.320 C 94.229 49.761,91.768 50.113,91.016 50.103 C 90.264 50.092,89.888 50.174,90.182 50.285 C 90.988 50.589,84.004 53.221,82.324 53.246 C 81.519 53.258,80.859 53.424,80.859 53.614 C 80.859 53.804,81.255 53.848,81.738 53.712 C 82.222 53.576,81.356 54.167,79.814 55.024 C 78.273 55.881,76.691 56.533,76.299 56.472 C 75.907 56.412,75.806 56.438,76.076 56.530 C 76.345 56.623,75.681 57.308,74.598 58.052 C 73.516 58.796,72.434 59.284,72.193 59.135 C 71.936 58.976,71.863 59.039,72.016 59.288 C 72.420 59.941,71.525 60.285,70.859 59.733 C 70.380 59.335,70.291 59.344,70.388 59.779 C 70.454 60.075,70.288 60.346,70.020 60.383 C 69.751 60.419,69.355 60.471,69.141 60.498 C 68.926 60.525,68.750 60.744,68.750 60.985 C 68.750 61.288,68.931 61.273,69.336 60.938 C 69.658 60.670,69.922 60.582,69.922 60.742 C 69.922 60.902,70.186 60.814,70.508 60.547 C 70.830 60.279,71.094 60.160,71.094 60.281 C 71.094 60.402,70.007 61.337,68.679 62.359 C 67.351 63.381,66.387 64.019,66.537 63.776 C 66.687 63.534,66.646 63.234,66.447 63.111 C 66.247 62.988,66.136 63.195,66.200 63.572 C 66.330 64.341,63.732 67.271,63.208 66.947 C 63.023 66.832,62.919 66.884,62.978 67.061 C 63.158 67.601,60.462 70.697,60.040 70.436 C 59.823 70.302,59.755 70.370,59.889 70.587 C 60.024 70.805,59.443 71.909,58.599 73.040 C 57.016 75.162,56.276 75.999,56.834 75.037 C 57.050 74.664,57.005 74.580,56.691 74.774 C 56.437 74.931,56.270 75.265,56.319 75.518 C 56.473 76.306,55.075 78.560,54.611 78.273 C 54.356 78.115,54.285 78.181,54.440 78.432 C 54.791 78.999,51.912 84.786,51.428 84.487 C 51.220 84.359,51.177 84.458,51.332 84.709 C 51.684 85.279,51.231 86.801,50.790 86.529 C 50.610 86.418,50.563 86.706,50.684 87.170 C 50.848 87.798,50.774 87.932,50.392 87.696 C 50.076 87.501,49.974 87.533,50.126 87.779 C 50.262 87.999,49.948 89.652,49.429 91.453 C 48.909 93.253,48.269 95.906,48.006 97.347 C 47.743 98.787,47.384 99.878,47.209 99.770 C 47.033 99.661,46.890 144.567,46.890 199.561 C 46.890 263.313,47.027 299.596,47.266 299.677 C 47.473 299.747,47.690 300.885,47.747 302.204 C 47.805 303.524,47.983 304.525,48.145 304.428 C 48.414 304.265,48.514 304.726,48.600 306.543 C 48.618 306.919,48.731 307.314,48.851 307.422 C 48.972 307.529,49.479 308.848,49.979 310.352 C 51.316 314.373,51.308 314.345,50.872 313.737 C 50.578 313.326,50.457 313.378,50.299 313.980 C 50.150 314.551,50.264 314.702,50.750 314.574 C 51.240 314.446,51.705 315.079,52.623 317.119 C 53.294 318.613,54.733 321.269,55.820 323.022 C 56.907 324.774,57.624 326.102,57.414 325.972 C 57.203 325.842,57.031 325.921,57.031 326.149 C 57.031 326.376,57.266 326.563,57.552 326.563 C 58.181 326.563,60.584 329.471,60.720 330.396 C 60.773 330.758,60.976 331.057,61.170 331.060 C 61.364 331.064,62.490 332.097,63.672 333.356 C 64.854 334.616,67.271 336.782,69.045 338.170 C 70.819 339.558,72.183 340.834,72.077 341.006 C 71.970 341.177,72.185 341.294,72.553 341.264 C 72.922 341.235,73.228 341.416,73.233 341.667 C 73.238 341.917,73.402 342.269,73.598 342.448 C 73.804 342.637,73.836 342.569,73.672 342.285 C 73.518 342.017,73.583 341.797,73.817 341.797 C 74.052 341.797,74.333 342.031,74.443 342.318 C 74.553 342.604,74.855 342.851,75.114 342.866 C 76.051 342.921,81.255 345.959,80.963 346.280 C 80.799 346.461,80.851 346.504,81.079 346.374 C 81.307 346.245,83.015 346.743,84.876 347.482 C 94.062 351.129,100.294 352.038,117.188 352.197 C 124.600 352.267,131.070 352.328,131.566 352.334 C 132.182 352.341,132.375 352.498,132.175 352.832 C 131.948 353.209,132.021 353.207,132.497 352.822 C 132.981 352.430,138.284 352.320,157.279 352.308 C 185.572 352.290,182.539 352.226,182.175 352.832 C 181.952 353.202,182.032 353.198,182.503 352.816 C 182.926 352.474,184.423 352.319,187.168 352.332 C 189.392 352.343,191.563 352.346,191.992 352.337 C 192.422 352.329,195.322 352.339,198.438 352.360 C 201.553 352.382,204.277 352.400,204.492 352.400 C 204.707 352.401,208.223 352.350,212.305 352.288 C 217.976 352.201,219.704 352.287,219.629 352.650 C 219.575 352.911,219.795 353.125,220.117 353.125 C 220.439 353.125,220.659 352.911,220.605 352.649 C 220.544 352.347,220.936 352.199,221.680 352.245 C 223.100 352.332,231.466 352.381,231.910 352.305 C 233.334 352.062,244.963 352.465,244.336 352.736 C 243.654 353.031,243.688 353.067,244.601 353.017 C 245.176 352.985,245.558 352.815,245.449 352.639 C 245.340 352.464,246.891 352.334,248.895 352.352 C 250.899 352.369,252.935 352.297,253.418 352.191 C 253.901 352.085,254.297 352.174,254.297 352.389 C 254.297 352.604,254.468 352.674,254.678 352.545 C 255.580 351.987,285.488 352.200,286.189 352.768 C 286.627 353.124,286.764 353.147,286.575 352.832 C 286.414 352.563,286.424 352.338,286.598 352.331 C 286.772 352.325,289.418 352.281,292.478 352.234 C 295.539 352.187,298.043 352.041,298.045 351.909 C 298.046 351.778,299.201 351.552,300.612 351.408 C 304.079 351.052,311.511 349.101,314.916 347.652 C 316.569 346.949,318.028 346.562,318.516 346.698 C 319.171 346.880,319.218 346.844,318.750 346.516 C 318.126 346.079,318.583 345.898,319.863 346.074 C 320.154 346.113,320.294 345.989,320.175 345.796 C 319.933 345.405,325.703 341.962,326.461 342.046 C 326.727 342.075,326.854 341.952,326.743 341.772 C 326.490 341.363,328.135 340.423,328.848 340.569 C 329.138 340.629,329.276 340.517,329.155 340.321 C 328.912 339.928,335.430 334.244,336.266 334.120 C 336.555 334.078,336.906 333.914,337.048 333.756 C 337.189 333.598,336.992 333.582,336.610 333.719 C 336.227 333.856,336.932 332.786,338.176 331.340 C 339.420 329.894,341.037 327.876,341.769 326.855 C 342.502 325.835,343.379 324.986,343.719 324.969 C 344.102 324.950,344.156 324.865,343.861 324.746 C 343.529 324.611,343.698 324.059,344.417 322.921 C 344.984 322.023,346.269 319.577,347.272 317.484 C 348.275 315.392,349.240 313.810,349.415 313.969 C 349.591 314.128,349.616 314.050,349.470 313.797 C 349.325 313.543,349.633 312.049,350.155 310.476 C 350.677 308.904,351.422 306.035,351.810 304.102 C 352.199 302.168,352.609 300.498,352.723 300.391 C 353.195 299.944,353.198 100.451,352.725 100.000 C 352.439 99.726,351.060 93.384,351.014 92.127 C 350.994 91.557,350.859 91.163,350.715 91.252 C 350.572 91.340,350.330 90.840,350.178 90.140 C 349.775 88.287,346.718 81.442,344.916 78.359 C 344.062 76.897,343.477 75.516,343.617 75.290 C 343.756 75.064,343.687 74.993,343.463 75.131 C 342.923 75.465,340.893 72.780,341.250 72.203 C 341.410 71.943,341.356 71.860,341.119 72.006 C 340.895 72.145,340.271 71.688,339.732 70.992 C 339.193 70.296,338.373 69.329,337.911 68.843 C 337.448 68.356,337.194 67.758,337.345 67.513 C 337.502 67.259,337.449 67.173,337.222 67.313 C 336.715 67.626,335.445 66.258,335.839 65.824 C 336.001 65.645,335.929 65.616,335.681 65.758 C 335.427 65.904,334.266 65.107,333.035 63.942 C 331.828 62.801,330.789 61.920,330.725 61.983 C 330.662 62.047,329.963 61.506,329.172 60.782 C 328.381 60.058,327.734 59.553,327.734 59.662 C 327.734 59.770,327.163 59.430,326.465 58.906 C 325.767 58.383,324.185 57.382,322.949 56.683 C 321.714 55.984,320.703 55.238,320.703 55.026 C 320.703 54.815,320.520 54.755,320.295 54.893 C 320.071 55.032,319.676 54.981,319.416 54.780 C 318.651 54.186,311.637 51.297,310.202 50.984 C 309.196 50.765,309.009 50.605,309.421 50.314 C 309.827 50.027,309.758 49.976,309.140 50.110 C 308.280 50.296,299.864 48.704,300.157 48.411 C 300.250 48.318,299.505 48.229,298.503 48.212 C 297.500 48.196,293.911 48.137,290.527 48.081 C 286.172 48.009,284.373 47.847,284.369 47.525 C 284.365 47.194,284.281 47.199,284.063 47.543 C 283.683 48.141,263.088 48.171,261.965 47.575 C 261.456 47.305,261.312 47.315,261.493 47.607 C 261.872 48.220,232.435 48.133,231.663 47.519 C 231.232 47.175,231.167 47.182,231.386 47.546 C 231.610 47.920,220.711 48.020,180.866 48.012 C 141.669 48.003,130.124 47.895,130.340 47.536 C 130.555 47.177,130.486 47.177,130.042 47.537 C 129.646 47.857,127.449 48.000,123.033 47.992 C 116.240 47.981,114.731 47.824,115.671 47.229 C 115.968 47.041,116.026 46.884,115.801 46.881 C 115.575 46.878,115.224 47.032,115.020 47.223 M177.868 119.871 C 178.220 120.163,178.394 120.584,178.256 120.808 C 178.117 121.031,178.187 121.101,178.411 120.963 C 179.262 120.437,181.903 127.269,181.420 128.747 C 181.265 129.221,181.300 129.322,181.517 129.024 C 181.739 128.718,182.432 130.168,183.507 133.185 C 185.162 137.832,185.469 138.980,184.766 137.891 C 184.501 137.481,184.385 137.455,184.381 137.805 C 184.378 138.081,184.639 138.407,184.961 138.531 C 185.283 138.654,185.547 138.923,185.547 139.127 C 185.547 139.332,185.341 139.372,185.090 139.217 C 184.784 139.028,184.714 139.146,184.877 139.572 C 185.012 139.922,184.954 140.313,184.749 140.440 C 184.543 140.567,184.375 140.935,184.375 141.257 C 184.375 141.579,184.554 141.733,184.772 141.598 C 184.990 141.463,185.097 141.233,185.008 141.086 C 184.920 140.940,185.080 140.606,185.364 140.343 C 185.997 139.759,188.070 145.490,187.670 146.715 C 187.470 147.327,187.502 147.356,187.848 146.875 C 188.098 146.528,188.272 146.475,188.275 146.745 C 188.279 146.996,188.399 147.509,188.543 147.884 C 188.721 148.349,188.659 148.476,188.348 148.283 C 188.096 148.128,187.891 148.187,187.891 148.414 C 187.891 148.642,188.121 148.828,188.402 148.828 C 189.057 148.828,192.389 157.951,191.977 158.618 C 191.801 158.903,191.836 159.006,192.061 158.867 C 192.370 158.677,193.482 161.411,193.933 163.466 C 193.981 163.686,194.200 164.307,194.419 164.844 C 195.127 166.579,195.417 167.849,194.953 167.188 C 194.613 166.701,194.542 166.748,194.537 167.457 C 194.534 167.928,194.734 168.439,194.982 168.592 C 195.262 168.765,195.327 168.699,195.154 168.420 C 195.001 168.172,195.048 167.969,195.258 167.969 C 195.695 167.969,197.038 171.724,196.969 172.754 C 196.944 173.130,197.069 173.438,197.248 173.438 C 197.426 173.438,197.678 173.861,197.808 174.378 C 197.937 174.895,198.149 175.642,198.277 176.038 C 198.477 176.651,198.443 176.671,198.047 176.172 C 197.651 175.672,197.617 175.691,197.815 176.301 C 197.942 176.695,198.050 177.222,198.053 177.473 C 198.057 177.767,198.178 177.741,198.394 177.401 C 198.856 176.672,200.354 181.169,200.146 182.661 C 200.034 183.469,200.078 183.587,200.303 183.077 C 200.537 182.545,201.031 183.548,202.261 187.056 C 203.744 191.284,204.391 193.632,203.514 191.602 C 203.224 190.930,203.185 190.972,203.237 191.903 C 203.276 192.607,203.472 192.919,203.797 192.795 C 204.227 192.629,204.390 193.051,204.264 193.999 C 204.245 194.136,204.393 194.356,204.592 194.488 C 205.260 194.929,207.332 201.404,206.675 200.998 C 206.043 200.607,206.485 202.045,207.144 202.527 C 208.126 203.245,208.741 205.135,208.121 205.528 C 207.731 205.775,207.749 205.849,208.203 205.854 C 209.310 205.866,210.686 210.521,209.862 211.464 C 209.487 211.893,209.384 212.124,209.635 211.979 C 209.885 211.833,210.164 211.847,210.254 212.009 C 210.345 212.172,210.365 212.085,210.300 211.816 C 210.234 211.548,210.314 211.328,210.476 211.328 C 210.948 211.328,212.866 217.578,212.604 218.260 C 212.456 218.648,212.526 218.780,212.792 218.616 C 213.317 218.291,214.634 222.048,214.226 222.708 C 214.036 223.016,214.111 223.063,214.454 222.851 C 214.836 222.615,214.911 222.749,214.746 223.377 C 214.625 223.841,214.663 224.135,214.829 224.032 C 215.264 223.764,218.886 234.317,218.886 235.851 C 218.886 236.555,219.007 236.936,219.154 236.697 C 219.331 236.411,219.508 236.485,219.672 236.913 C 220.032 237.851,219.981 238.281,219.508 238.281 C 219.281 238.281,219.219 238.062,219.370 237.793 C 219.584 237.414,219.533 237.409,219.145 237.768 C 218.740 238.143,218.766 238.353,219.283 238.870 C 219.634 239.221,219.925 239.804,219.928 240.165 C 219.933 240.682,220.005 240.708,220.270 240.290 C 220.498 239.930,221.058 241.109,222.017 243.973 C 222.793 246.291,223.342 248.273,223.237 248.377 C 223.133 248.482,223.047 248.363,223.047 248.112 C 223.047 247.861,222.739 247.661,222.363 247.667 C 221.857 247.674,221.957 247.849,222.747 248.339 C 223.825 249.007,225.625 253.210,225.158 253.967 C 224.845 254.474,225.386 256.641,225.826 256.641 C 226.053 256.641,226.040 256.344,225.795 255.885 C 225.573 255.469,225.400 254.898,225.412 254.616 C 225.424 254.333,225.756 254.893,226.149 255.859 C 226.542 256.826,226.735 257.705,226.577 257.813 C 226.161 258.096,226.236 259.375,226.669 259.375 C 226.871 259.375,226.920 259.067,226.776 258.691 C 226.613 258.262,226.651 258.153,226.878 258.398 C 227.424 258.988,228.532 262.549,228.290 262.939 C 228.174 263.127,228.243 263.281,228.443 263.281 C 229.506 263.281,231.574 271.709,230.762 272.730 C 230.162 273.484,227.909 274.102,228.348 273.393 C 228.549 273.067,228.470 273.030,228.088 273.270 C 227.133 273.867,225.676 273.929,226.000 273.358 C 226.230 272.951,226.183 272.948,225.760 273.340 C 225.471 273.608,224.995 273.828,224.704 273.828 C 224.383 273.828,224.289 273.635,224.466 273.340 C 224.691 272.965,224.629 272.954,224.196 273.295 C 223.438 273.893,210.963 273.880,210.179 273.282 C 209.749 272.954,209.686 272.969,209.913 273.346 C 210.545 274.398,200.841 273.681,199.802 272.599 C 198.675 271.427,196.417 264.601,196.719 263.281 C 196.863 262.656,196.818 262.479,196.595 262.790 C 196.147 263.414,190.022 244.801,190.447 244.112 C 190.639 243.802,190.585 243.729,190.295 243.908 C 190.031 244.071,189.844 243.946,189.844 243.606 C 189.844 243.287,189.390 242.668,188.834 242.232 C 188.245 241.768,187.932 241.228,188.082 240.934 C 188.224 240.656,188.088 240.737,187.780 241.112 C 187.258 241.749,185.484 241.794,161.109 241.791 C 140.606 241.789,134.896 241.894,134.526 242.281 C 134.039 242.789,130.078 254.429,130.078 255.351 C 130.078 255.635,129.727 256.168,129.297 256.536 C 128.867 256.904,128.518 257.386,128.522 257.606 C 128.525 257.827,128.715 257.744,128.944 257.422 C 129.259 256.978,129.298 257.119,129.102 258.004 C 128.960 258.646,128.726 259.262,128.582 259.371 C 128.438 259.481,128.320 259.749,128.320 259.966 C 128.320 261.086,126.384 266.342,126.048 266.134 C 125.828 265.998,125.783 266.094,125.945 266.355 C 126.359 267.025,125.804 269.201,125.298 268.888 C 125.048 268.733,124.993 268.813,125.163 269.088 C 125.997 270.438,123.419 273.728,121.848 273.317 C 121.434 273.209,121.003 273.268,120.892 273.448 C 120.522 274.046,95.135 273.710,94.396 273.097 C 93.259 272.153,95.095 263.107,96.533 262.564 C 96.724 262.492,96.793 262.293,96.687 262.122 C 96.582 261.951,96.828 260.867,97.236 259.714 C 100.538 250.373,103.335 242.376,106.507 233.203 C 108.550 227.295,110.575 221.450,111.006 220.214 C 111.477 218.865,111.957 218.070,112.206 218.224 C 112.463 218.382,112.505 218.292,112.316 217.987 C 111.973 217.432,113.260 213.281,113.776 213.281 C 113.959 213.281,114.015 213.130,113.901 212.946 C 113.509 212.311,118.032 199.478,118.444 200.055 C 118.725 200.447,118.760 200.391,118.580 199.840 C 118.223 198.749,121.075 190.378,121.568 191.069 C 121.852 191.466,121.888 191.416,121.710 190.869 C 121.377 189.846,123.090 184.620,123.550 185.256 C 123.789 185.586,123.827 185.512,123.670 185.028 C 123.328 183.973,123.832 182.199,124.282 182.873 C 124.508 183.212,124.544 183.017,124.384 182.324 C 124.246 181.733,124.300 181.250,124.502 181.250 C 124.704 181.250,124.870 180.989,124.870 180.669 C 124.870 179.700,126.310 175.781,126.666 175.781 C 126.849 175.781,126.904 175.627,126.788 175.439 C 126.671 175.251,126.996 173.889,127.510 172.412 C 128.023 170.935,131.109 161.992,134.368 152.539 C 145.801 119.373,145.509 120.154,146.366 120.483 C 146.668 120.599,146.811 120.526,146.684 120.319 C 146.557 120.113,146.943 119.836,147.543 119.704 C 148.142 119.571,148.809 119.417,149.023 119.360 C 150.646 118.932,177.306 119.404,177.868 119.871 M264.459 119.630 C 264.464 120.003,264.535 120.008,264.763 119.648 C 264.958 119.342,266.247 119.180,268.479 119.180 C 270.359 119.180,271.821 119.303,271.728 119.453 C 271.635 119.604,272.157 119.727,272.889 119.727 C 273.620 119.727,274.219 119.622,274.219 119.493 C 274.219 118.776,281.087 119.257,281.934 120.033 C 282.417 120.477,282.816 120.677,282.821 120.478 C 282.826 120.280,283.199 120.557,283.650 121.094 L 284.471 122.070 283.887 121.094 C 283.566 120.557,283.120 120.117,282.895 120.117 C 282.671 120.117,282.355 119.985,282.194 119.824 C 282.033 119.663,282.181 119.531,282.524 119.531 C 283.121 119.531,284.317 120.469,284.428 121.024 C 284.681 122.296,284.566 271.841,284.311 272.346 C 283.666 273.625,267.969 274.614,267.969 273.375 C 267.969 273.098,267.766 273.119,267.383 273.438 C 266.915 273.825,266.678 273.825,266.211 273.438 C 265.889 273.170,265.625 273.105,265.625 273.292 C 265.625 273.479,264.913 273.674,264.043 273.724 C 262.876 273.792,262.538 273.689,262.751 273.334 C 262.973 272.965,262.908 272.956,262.477 273.295 C 260.966 274.484,251.633 273.664,252.124 272.385 C 252.241 272.079,252.162 271.941,251.946 272.075 C 251.732 272.207,251.459 272.060,251.339 271.748 C 250.840 270.446,250.963 203.906,251.465 203.906 C 251.733 203.906,251.953 203.730,251.953 203.516 C 251.953 203.301,251.733 203.169,251.465 203.223 C 250.682 203.379,250.608 150.630,251.390 149.981 C 251.700 149.724,251.953 149.326,251.953 149.096 C 251.953 148.867,251.720 148.998,251.434 149.389 C 250.940 150.065,250.861 143.444,251.133 124.000 C 251.195 119.589,251.743 119.280,259.668 119.195 C 263.252 119.157,264.455 119.266,264.459 119.630 M181.352 131.710 C 181.305 132.336,181.371 132.357,181.860 131.868 C 182.554 131.174,182.565 130.990,181.914 130.990 C 181.635 130.990,181.382 131.314,181.352 131.710 M189.063 151.781 C 189.063 152.331,189.222 152.682,189.416 152.562 C 189.611 152.441,189.679 151.992,189.566 151.562 C 189.285 150.487,189.063 150.584,189.063 151.781 M161.145 159.211 C 160.811 160.010,159.740 163.187,158.764 166.270 C 157.788 169.353,156.813 171.875,156.597 171.875 C 156.381 171.875,156.305 172.038,156.428 172.238 C 156.808 172.853,153.808 181.712,153.409 181.155 C 153.179 180.834,153.131 180.996,153.271 181.622 C 153.408 182.240,152.246 186.337,150.001 193.146 C 148.085 198.957,146.114 204.981,145.622 206.534 C 145.129 208.087,144.507 209.362,144.238 209.366 C 143.970 209.371,143.750 209.561,143.750 209.789 C 143.750 210.016,143.920 210.097,144.129 209.968 C 144.337 209.839,144.252 210.460,143.939 211.347 C 143.588 212.340,143.497 213.210,143.702 213.609 C 143.885 213.966,143.958 214.521,143.863 214.844 C 143.760 215.192,143.822 215.271,144.013 215.039 C 144.221 214.788,148.947 214.695,157.227 214.779 C 164.729 214.855,169.791 215.048,169.336 215.240 C 168.701 215.508,168.678 215.575,169.215 215.598 C 169.579 215.613,169.984 215.449,170.117 215.234 C 170.252 215.017,172.066 214.844,174.216 214.844 C 178.868 214.844,180.078 214.478,180.078 213.073 C 180.078 212.499,180.247 212.168,180.469 212.305 C 180.684 212.437,180.859 212.360,180.859 212.132 C 180.859 211.905,180.617 211.719,180.320 211.719 C 179.706 211.719,178.735 208.405,179.151 207.732 C 179.298 207.495,179.241 207.410,179.025 207.544 C 178.496 207.871,177.704 205.120,177.976 203.902 C 178.131 203.206,178.085 203.082,177.813 203.466 C 177.406 204.041,174.940 196.880,174.851 194.863 C 174.825 194.293,174.697 193.893,174.566 193.973 C 174.184 194.208,171.419 185.188,171.722 184.697 C 171.872 184.454,171.826 184.359,171.619 184.487 C 171.286 184.693,168.701 177.308,168.569 175.774 C 168.541 175.448,168.411 175.009,168.280 174.797 C 167.701 173.860,164.823 164.412,165.020 164.093 C 165.141 163.898,165.084 163.680,164.893 163.608 C 164.703 163.536,164.130 162.259,163.621 160.771 C 162.531 157.585,161.971 157.233,161.145 159.211 M193.847 165.936 C 193.860 166.674,194.016 167.078,194.212 166.881 C 194.409 166.685,194.399 166.135,194.190 165.594 C 193.848 164.709,193.826 164.731,193.847 165.936 M251.472 184.154 C 251.372 184.678,251.410 185.301,251.558 185.539 C 251.705 185.777,251.849 185.349,251.877 184.588 C 251.937 182.989,251.736 182.773,251.472 184.154 M200.393 184.450 C 200.392 184.813,200.566 185.219,200.781 185.352 C 200.996 185.484,201.172 185.924,201.172 186.328 C 201.172 186.732,201.331 187.162,201.526 187.282 C 201.961 187.551,201.608 186.113,200.911 184.776 C 200.554 184.093,200.395 183.993,200.393 184.450 M203.230 194.105 C 203.263 194.543,203.486 194.977,203.725 195.069 C 203.970 195.162,204.134 194.877,204.100 194.418 C 204.067 193.967,203.844 193.534,203.605 193.454 C 203.366 193.374,203.197 193.667,203.230 194.105 M206.250 203.793 C 206.250 204.250,206.374 204.289,206.774 203.957 C 207.063 203.718,207.370 203.565,207.458 203.617 C 207.545 203.669,207.568 203.633,207.508 203.537 C 207.216 203.070,206.250 203.267,206.250 203.793 M213.010 220.205 C 213.076 220.683,213.253 221.195,213.401 221.344 C 213.816 221.759,213.711 220.585,213.274 219.922 C 212.968 219.457,212.913 219.515,213.010 220.205 M215.765 228.562 C 215.812 228.859,216.072 229.453,216.342 229.883 C 216.801 230.611,216.817 230.598,216.576 229.688 C 216.294 228.619,215.627 227.693,215.765 228.562 M228.125 264.769 C 228.125 264.943,228.383 265.426,228.699 265.843 C 229.284 266.617,229.487 266.184,229.060 265.071 C 228.815 264.433,228.125 264.210,228.125 264.769 M147.363 353.004 C 147.739 353.102,148.354 353.102,148.730 353.004 C 149.106 352.905,148.799 352.825,148.047 352.825 C 147.295 352.825,146.987 352.905,147.363 353.004 M152.832 353.004 C 153.208 353.102,153.823 353.102,154.199 353.004 C 154.575 352.905,154.268 352.825,153.516 352.825 C 152.764 352.825,152.456 352.905,152.832 353.004 M158.691 353.004 C 159.067 353.102,159.683 353.102,160.059 353.004 C 160.435 352.905,160.127 352.825,159.375 352.825 C 158.623 352.825,158.315 352.905,158.691 353.004 M197.563 353.011 C 198.049 353.104,198.752 353.101,199.126 353.003 C 199.499 352.905,199.102 352.829,198.242 352.833 C 197.383 352.837,197.077 352.917,197.563 353.011 " stroke="none" fill="#000000" fill-rule="evenodd"></path></g></svg>