<svg width="29" height="35" viewBox="0 0 29 35" fill="none" xmlns="http://www.w3.org/2000/svg">
<path d="M17.5833 2.08331H5.24999C4.43224 2.08331 3.64798 2.40816 3.06974 2.9864C2.49151 3.56464 2.16666 4.3489 2.16666 5.16665V29.8333C2.16666 30.6511 2.49151 31.4353 3.06974 32.0136C3.64798 32.5918 4.43224 32.9166 5.24999 32.9166H23.75C24.5677 32.9166 25.352 32.5918 25.9302 32.0136C26.5085 31.4353 26.8333 30.6511 26.8333 29.8333V11.3333M17.5833 2.08331L26.8333 11.3333M17.5833 2.08331V11.3333H26.8333M20.6667 19.0416H8.33332M20.6667 25.2083H8.33332M11.4167 12.875H8.33332" stroke="#1E1E1E" stroke-width="4" stroke-linecap="round" stroke-linejoin="round"/>
</svg>
