<?xml version="1.0" encoding="UTF-8"?>
<svg version="1.1" xmlns="http://www.w3.org/2000/svg" width="96" height="96">
<path d="M0 0 C3.12578143 1.6720747 5.39281175 3.7856235 7 7 C7.28339763 11.77973427 7.31374058 16.56031361 7.35009766 21.34765625 C7.36662653 22.94220608 7.39387651 24.53668275 7.43212891 26.13085938 C7.48714107 28.43658655 7.50880817 30.7405783 7.5234375 33.046875 C7.54610687 33.75334167 7.56877625 34.45980835 7.59213257 35.18768311 C7.57573732 39.06379798 6.99278501 41.46968132 4.59228516 44.43457031 C1.30522904 47.6875733 -0.25053309 48.19774827 -4.75 48.375 C-8.49103938 48.3533442 -10.6566975 48.02882688 -13.5625 45.625 C-18.51232692 40.29441716 -17.29759852 33.56520301 -17.35009766 26.65234375 C-17.36662653 25.05779392 -17.39387651 23.46331725 -17.43212891 21.86914062 C-17.48714107 19.56341345 -17.50880817 17.2594217 -17.5234375 14.953125 C-17.54610687 14.24665833 -17.56877625 13.54019165 -17.59213257 12.81231689 C-17.57573732 8.93620202 -16.99278501 6.53031868 -14.59228516 3.56542969 C-10.20150189 -0.77986609 -5.98745647 -0.84356201 0 0 Z " fill="#000000" transform="translate(53,8)"/>
<path d="M0 0 C2.97 0 5.94 0 9 0 C9.2475 1.19625 9.495 2.3925 9.75 3.625 C11.18268654 9.21741779 13.42891796 12.75622672 18 16.375 C23.0555253 18.95168709 28.49481315 18.83345458 34 18 C38.6388161 16.30085504 41.82307073 13.74930844 44.4375 9.5625 C45.88128822 6.27066286 46.65254939 3.56136875 47 0 C49.97 0 52.94 0 56 0 C56.66065967 7.13512446 55.00869261 12.0547409 51 18 C46.70318792 22.80020429 42.11267536 26.00162536 36 28 C34.68 28 33.36 28 32 28 C32 31.96 32 35.92 32 40 C29.36 40 26.72 40 24 40 C24 36.04 24 32.08 24 28 C23.030625 27.95875 22.06125 27.9175 21.0625 27.875 C14.15953791 26.85492665 8.73860057 22.31550268 4.5625 16.9375 C0.57020395 11.08729332 -0.23757285 7.00839917 0 0 Z " fill="#000000" transform="translate(20,44)"/>
</svg>
