<?xml version="1.0" encoding="UTF-8"?>
<svg version="1.1" xmlns="http://www.w3.org/2000/svg" width="96" height="96">
<path d="M0 0 C5.27084085 -0.44175053 8.89159717 1.03149394 13.47412109 3.39648438 C14.19676147 3.75736649 14.91940186 4.1182486 15.66394043 4.49006653 C18.03964354 5.68000007 20.40640079 6.886682 22.7734375 8.09375 C24.42343373 8.92434616 26.07396472 9.75388077 27.7250061 10.58239746 C32.06059494 12.76162416 36.38878134 14.95517078 40.71557617 17.15179443 C45.13542481 19.39245441 49.5621331 21.61947377 53.98828125 23.84765625 C62.66561621 28.21845934 71.33519093 32.60442362 80 37 C80 38.98 80 40.96 80 43 C70.46234187 47.83836452 60.91822568 52.66371657 51.36566734 57.47260284 C46.93014521 59.70601433 42.4969645 61.9438318 38.06884766 64.19189453 C33.79473572 66.36156585 29.51485371 68.51943086 25.23073196 70.66926575 C23.59797184 71.49118538 21.96732863 72.31732441 20.33887863 73.14775085 C18.05610145 74.31094242 15.76623107 75.45885016 13.47412109 76.60351562 C12.8037381 76.94949295 12.1333551 77.29547028 11.44265747 77.65193176 C7.45636122 79.61902255 4.43891528 80.37202664 0 80 C0.18139249 74.08530901 1.48812814 69.32146494 3.828125 63.91015625 C4.1003186 63.27612885 4.37251221 62.64210144 4.6529541 61.98886108 C5.79935155 59.34206083 6.958543 56.70230476 8.15429688 54.07739258 C12.42007659 45.29339613 12.42007659 45.29339613 12.18359375 35.85546875 C11.49831647 34.21849275 10.76678514 32.60041742 10 31 C9.16808339 28.92390887 8.34157511 26.84564508 7.51953125 24.765625 C6.16208873 21.4800196 4.79160666 18.20054178 3.40820312 14.92578125 C2.97056641 13.86230469 2.53292969 12.79882812 2.08203125 11.703125 C1.68218018 10.75083008 1.2823291 9.79853516 0.87036133 8.81738281 C-0.08021996 5.74032585 -0.15760739 3.20182518 0 0 Z M10 11 C13.3 19.58 16.6 28.16 20 37 C29.9 37 39.8 37 50 37 C50 38.98 50 40.96 50 43 C40.1 43 30.2 43 20 43 C16.7 51.58 13.4 60.16 10 69 C14.15697625 67.61434125 17.6082324 66.31879055 21.45458984 64.38623047 C22.49521576 63.86584198 23.53584167 63.34545349 24.60800171 62.80929565 C25.71447052 62.25089996 26.82093933 61.69250427 27.9609375 61.1171875 C29.10664215 60.54292023 30.2523468 59.96865295 31.43276978 59.37698364 C34.46270615 57.8582171 37.49020785 56.33465918 40.51721191 54.81005859 C43.61287093 53.25195701 46.71083029 51.6984434 49.80859375 50.14453125 C55.87451574 47.10056033 61.93812913 44.05202977 68 41 C68 40.34 68 39.68 68 39 C60.73539861 35.34455895 53.46866424 31.69340837 46.19914436 28.04776001 C42.82391425 26.35491984 39.44944656 24.66059506 36.07666016 22.96289062 C32.82349923 21.32546811 29.56841623 19.69192847 26.31194687 18.06109619 C25.0680664 17.43730409 23.82489248 16.81210106 22.58243179 16.18548584 C20.84603989 15.31006211 19.10692153 14.44005256 17.36767578 13.5703125 C16.37728302 13.07289551 15.38689026 12.57547852 14.3664856 12.06298828 C12.12831051 10.86341805 12.12831051 10.86341805 10 11 Z " fill="#000000" transform="translate(8,8)"/>
</svg>
