<?xml version="1.0" encoding="UTF-8"?>
<svg version="1.1" xmlns="http://www.w3.org/2000/svg" width="96" height="96">
<path d="M0 0 C2.31225586 0.80029297 2.31225586 0.80029297 3.31225586 1.80029297 C3.41648522 3.59992957 3.45079688 5.40365897 3.45751953 7.20629883 C3.46389938 8.36097153 3.47027924 9.51564423 3.47685242 10.70530701 C3.47796524 11.96255081 3.47907806 13.21979462 3.48022461 14.51513672 C3.48521721 16.43695518 3.48521721 16.43695518 3.49031067 18.39759827 C3.49630778 21.11378827 3.49814998 23.82994642 3.49755859 26.54614258 C3.49745696 30.03119888 3.51110802 33.51605152 3.5283308 37.00105953 C3.54210652 40.3182553 3.5415391 43.63541267 3.54272461 46.95263672 C3.54991013 48.20785629 3.55709564 49.46307587 3.5644989 50.7563324 C3.56142227 51.91415726 3.55834564 53.07198212 3.55517578 54.26489258 C3.5566008 55.28779892 3.55802582 56.31070526 3.55949402 57.36460876 C3.31225586 59.80029297 3.31225586 59.80029297 1.31225586 61.80029297 C-1.73653058 61.62328073 -3.2933402 61.13779978 -5.62548828 59.14208984 C-6.23513428 58.44148438 -6.84478027 57.74087891 -7.47290039 57.01904297 C-8.50797729 55.879552 -8.50797729 55.879552 -9.56396484 54.71704102 C-10.28543701 53.91951416 -11.00690918 53.1219873 -11.75024414 52.30029297 C-18.32389395 44.97605612 -18.32389395 44.97605612 -27.50024414 42.48779297 C-28.41418945 42.59478516 -29.32813477 42.70177734 -30.26977539 42.81201172 C-32.68774414 42.80029297 -32.68774414 42.80029297 -34.98071289 41.31982422 C-37.3120816 37.87878803 -37.27497956 34.81312237 -37.18774414 30.80029297 C-37.20321289 30.08873047 -37.21868164 29.37716797 -37.23461914 28.64404297 C-37.20991809 25.33410187 -37.0277417 23.25036097 -35.00830078 20.57714844 C-32.09391633 18.34559767 -30.64737885 18.48817771 -27.02758789 18.62060547 C-20.48699042 18.28091157 -17.82199649 15.96999917 -13.47875977 11.26513672 C-12.74334961 10.41048828 -12.00793945 9.55583984 -11.25024414 8.67529297 C-9.74481366 6.97261673 -8.22583871 5.28179099 -6.69165039 3.60498047 C-6.04010986 2.85200684 -5.38856934 2.0990332 -4.71728516 1.32324219 C-2.68774414 -0.19970703 -2.68774414 -0.19970703 0 0 Z " fill="#000000" transform="translate(44.687744140625,17.19970703125)"/>
<path d="M0 0 C9.1627304 0.72720083 15.93103403 6.66616996 21.9375 13.3125 C28.52188163 23.71522166 29.62661375 35.37617525 27.359375 47.37109375 C23.83724543 57.37714366 15.83976514 64.68303494 6.53125 69.32421875 C3.01095987 70.66553412 0.64726549 70.87702953 -3.0625 70.3125 C-4.0625 69.3125 -4.0625 69.3125 -4.125 66.25 C-4.104375 65.280625 -4.08375 64.31125 -4.0625 63.3125 C-2.75925781 62.67634766 -2.75925781 62.67634766 -1.4296875 62.02734375 C6.81994657 57.82870449 14.04711194 53.64658011 17.4609375 44.515625 C19.28119852 36.10064781 18.86050031 27.90786506 14.4765625 20.42578125 C9.67750382 13.83621083 3.23757314 10.63205036 -4.0625 7.3125 C-4.10504356 5.31295254 -4.10330783 3.31208364 -4.0625 1.3125 C-3.0625 0.3125 -3.0625 0.3125 0 0 Z " fill="#000000" transform="translate(60.0625,12.6875)"/>
<path d="M0 0 C4.09778755 0.39401803 5.39219981 1.37949454 8.25 4.3125 C12.51038811 9.72434435 12.86413669 14.32589928 12.63671875 21.1484375 C11.92594266 26.96387826 9.86334462 30.6142425 5.875 34.8125 C2.74145764 36.60309563 0.80501706 36.71647921 -2.75 36.3125 C-3.75 35.3125 -3.75 35.3125 -4.1875 32.6875 C-3.70629055 28.97531285 -3.2364478 28.48830292 -0.75 25.9375 C1.57959401 23.41931981 2.75929487 21.77597934 3 18.3125 C2.70245071 14.03109639 0.48275677 11.95216341 -2.41015625 8.984375 C-3.75 7.3125 -3.75 7.3125 -4.1875 3.9375 C-3.59942085 0.4090251 -3.59942085 0.4090251 0 0 Z " fill="#000000" transform="translate(59.75,29.6875)"/>
</svg>
